<svg xmlns="http://www.w3.org/2000/svg" xmlns:xlink="http://www.w3.org/1999/xlink" width="400" zoomAndPan="magnify" viewBox="0 0 300 299.999988" height="400" preserveAspectRatio="xMidYMid meet" version="1.0"><defs><clipPath id="3cf3e166b0"><path d="M 0 0 L 300 0 L 300 300 L 0 300 Z M 0 0 " clip-rule="nonzero"/></clipPath><clipPath id="7eea6a790a"><rect x="0" width="300" y="0" height="300"/></clipPath><clipPath id="8454ebd91d"><path d="M 18.75 243.75 L 56.25 243.75 L 56.25 281.25 L 18.75 281.25 Z M 18.75 243.75 " clip-rule="nonzero"/></clipPath><clipPath id="940b7378ed"><path d="M 37.5 243.75 C 27.144531 243.75 18.75 252.144531 18.75 262.5 C 18.75 272.855469 27.144531 281.25 37.5 281.25 C 47.855469 281.25 56.25 272.855469 56.25 262.5 C 56.25 252.144531 47.855469 243.75 37.5 243.75 Z M 37.5 243.75 " clip-rule="nonzero"/></clipPath><clipPath id="0f40107fa9"><path d="M 0.75 0.75 L 38.25 0.75 L 38.25 38.25 L 0.75 38.25 Z M 0.75 0.75 " clip-rule="nonzero"/></clipPath><clipPath id="069d11cde0"><path d="M 19.5 0.75 C 9.144531 0.75 0.75 9.144531 0.75 19.5 C 0.75 29.855469 9.144531 38.25 19.5 38.25 C 29.855469 38.25 38.25 29.855469 38.25 19.5 C 38.25 9.144531 29.855469 0.75 19.5 0.75 Z M 19.5 0.75 " clip-rule="nonzero"/></clipPath><clipPath id="c386421eed"><rect x="0" width="39" y="0" height="39"/></clipPath><clipPath id="4a64e24fb5"><path d="M 243.75 243.75 L 281.25 243.75 L 281.25 281.25 L 243.75 281.25 Z M 243.75 243.75 " clip-rule="nonzero"/></clipPath><clipPath id="eabbe63da2"><path d="M 262.5 243.75 C 252.144531 243.75 243.75 252.144531 243.75 262.5 C 243.75 272.855469 252.144531 281.25 262.5 281.25 C 272.855469 281.25 281.25 272.855469 281.25 262.5 C 281.25 252.144531 272.855469 243.75 262.5 243.75 Z M 262.5 243.75 " clip-rule="nonzero"/></clipPath><clipPath id="4504b0f3b1"><path d="M 0.75 0.75 L 38.25 0.75 L 38.25 38.25 L 0.75 38.25 Z M 0.75 0.75 " clip-rule="nonzero"/></clipPath><clipPath id="63e4252b29"><path d="M 19.5 0.75 C 9.144531 0.75 0.75 9.144531 0.75 19.5 C 0.75 29.855469 9.144531 38.25 19.5 38.25 C 29.855469 38.25 38.25 29.855469 38.25 19.5 C 38.25 9.144531 29.855469 0.75 19.5 0.75 Z M 19.5 0.75 " clip-rule="nonzero"/></clipPath><clipPath id="2cf31ad3ed"><rect x="0" width="39" y="0" height="39"/></clipPath><clipPath id="bdac0c30d1"><path d="M 131.25 159.75 L 168.75 159.75 L 168.75 197.25 L 131.25 197.25 Z M 131.25 159.75 " clip-rule="nonzero"/></clipPath><clipPath id="4d195a3ac8"><path d="M 150 159.75 C 139.644531 159.75 131.25 168.144531 131.25 178.5 C 131.25 188.855469 139.644531 197.25 150 197.25 C 160.355469 197.25 168.75 188.855469 168.75 178.5 C 168.75 168.144531 160.355469 159.75 150 159.75 Z M 150 159.75 " clip-rule="nonzero"/></clipPath><clipPath id="9eefdc4db3"><path d="M 0.25 0.75 L 37.75 0.75 L 37.75 38.25 L 0.25 38.25 Z M 0.25 0.75 " clip-rule="nonzero"/></clipPath><clipPath id="4109135c6c"><path d="M 19 0.75 C 8.644531 0.75 0.25 9.144531 0.25 19.5 C 0.25 29.855469 8.644531 38.25 19 38.25 C 29.355469 38.25 37.75 29.855469 37.75 19.5 C 37.75 9.144531 29.355469 0.75 19 0.75 Z M 19 0.75 " clip-rule="nonzero"/></clipPath><clipPath id="7ca726ec49"><rect x="0" width="38" y="0" height="39"/></clipPath><clipPath id="84a9bbd66f"><path d="M 131.25 30 L 168.75 30 L 168.75 67.5 L 131.25 67.5 Z M 131.25 30 " clip-rule="nonzero"/></clipPath><clipPath id="7d3f30ef11"><path d="M 150 30 C 139.644531 30 131.25 38.394531 131.25 48.75 C 131.25 59.105469 139.644531 67.5 150 67.5 C 160.355469 67.5 168.75 59.105469 168.75 48.75 C 168.75 38.394531 160.355469 30 150 30 Z M 150 30 " clip-rule="nonzero"/></clipPath><clipPath id="cad2c03e82"><path d="M 0.25 0 L 37.75 0 L 37.75 37.5 L 0.25 37.5 Z M 0.25 0 " clip-rule="nonzero"/></clipPath><clipPath id="520986bc6f"><path d="M 19 0 C 8.644531 0 0.25 8.394531 0.25 18.75 C 0.25 29.105469 8.644531 37.5 19 37.5 C 29.355469 37.5 37.75 29.105469 37.75 18.75 C 37.75 8.394531 29.355469 0 19 0 Z M 19 0 " clip-rule="nonzero"/></clipPath><clipPath id="e996b26ec5"><rect x="0" width="38" y="0" height="38"/></clipPath><clipPath id="89d33c1890"><path d="M 183.75 123.75 L 221.25 123.75 L 221.25 161.25 L 183.75 161.25 Z M 183.75 123.75 " clip-rule="nonzero"/></clipPath><clipPath id="d7589900be"><path d="M 202.5 123.75 C 192.144531 123.75 183.75 132.144531 183.75 142.5 C 183.75 152.855469 192.144531 161.25 202.5 161.25 C 212.855469 161.25 221.25 152.855469 221.25 142.5 C 221.25 132.144531 212.855469 123.75 202.5 123.75 Z M 202.5 123.75 " clip-rule="nonzero"/></clipPath><clipPath id="bfea215a19"><path d="M 0.75 0.75 L 38.25 0.75 L 38.25 38.25 L 0.75 38.25 Z M 0.75 0.75 " clip-rule="nonzero"/></clipPath><clipPath id="331d510c68"><path d="M 19.5 0.75 C 9.144531 0.75 0.75 9.144531 0.75 19.5 C 0.75 29.855469 9.144531 38.25 19.5 38.25 C 29.855469 38.25 38.25 29.855469 38.25 19.5 C 38.25 9.144531 29.855469 0.75 19.5 0.75 Z M 19.5 0.75 " clip-rule="nonzero"/></clipPath><clipPath id="809fa24417"><rect x="0" width="39" y="0" height="39"/></clipPath><clipPath id="ca4e053d76"><path d="M 25 55 L 152 55 L 152 273 L 25 273 Z M 25 55 " clip-rule="nonzero"/></clipPath><clipPath id="e167cc9bc4"><path d="M 137.695312 55.886719 L 151.179688 63.097656 L 39.199219 272.464844 L 25.714844 265.253906 Z M 137.695312 55.886719 " clip-rule="nonzero"/></clipPath><clipPath id="0b301b63d6"><path d="M 0.679688 0.679688 L 126.199219 0.679688 L 126.199219 217.640625 L 0.679688 217.640625 Z M 0.679688 0.679688 " clip-rule="nonzero"/></clipPath><clipPath id="9049ae3d4c"><path d="M 112.695312 0.886719 L 126.179688 8.097656 L 14.199219 217.464844 L 0.714844 210.253906 Z M 112.695312 0.886719 " clip-rule="nonzero"/></clipPath><clipPath id="2080e50bc4"><rect x="0" width="127" y="0" height="218"/></clipPath><clipPath id="5f30355048"><path d="M 33 141 L 200 141 L 200 268 L 33 268 Z M 33 141 " clip-rule="nonzero"/></clipPath><clipPath id="69d9cb51d6"><path d="M 190.796875 141.421875 L 199.742188 153.824219 L 42.707031 267.089844 L 33.761719 254.6875 Z M 190.796875 141.421875 " clip-rule="nonzero"/></clipPath><clipPath id="b1e4a94fcc"><path d="M 0.601562 0.359375 L 166.921875 0.359375 L 166.921875 126.121094 L 0.601562 126.121094 Z M 0.601562 0.359375 " clip-rule="nonzero"/></clipPath><clipPath id="84fd31922a"><path d="M 157.796875 0.421875 L 166.742188 12.824219 L 9.707031 126.089844 L 0.761719 113.6875 Z M 157.796875 0.421875 " clip-rule="nonzero"/></clipPath><clipPath id="4679bf4786"><rect x="0" width="167" y="0" height="127"/></clipPath><clipPath id="2744586e92"><path d="M 150 58 L 267 58 L 267 260 L 150 260 Z M 150 58 " clip-rule="nonzero"/></clipPath><clipPath id="1e7caa14de"><path d="M 150.605469 65.515625 L 164.132812 58.386719 L 266.292969 252.25 L 252.765625 259.378906 Z M 150.605469 65.515625 " clip-rule="nonzero"/></clipPath><clipPath id="0a3c2bf490"><path d="M 0.480469 0.320312 L 116.398438 0.320312 L 116.398438 201.441406 L 0.480469 201.441406 Z M 0.480469 0.320312 " clip-rule="nonzero"/></clipPath><clipPath id="393a9b19a4"><path d="M 0.605469 7.515625 L 14.132812 0.386719 L 116.292969 194.25 L 102.765625 201.378906 Z M 0.605469 7.515625 " clip-rule="nonzero"/></clipPath><clipPath id="c3691d5820"><rect x="0" width="117" y="0" height="202"/></clipPath><clipPath id="8398af5c73"><path d="M 141 169 L 271 169 L 271 272 L 141 272 Z M 141 169 " clip-rule="nonzero"/></clipPath><clipPath id="397bce7630"><path d="M 141.964844 181.996094 L 151.121094 169.75 L 270.75 259.15625 L 261.597656 271.40625 Z M 141.964844 181.996094 " clip-rule="nonzero"/></clipPath><clipPath id="0f604eda09"><path d="M 0.839844 0.679688 L 129.960938 0.679688 L 129.960938 102.441406 L 0.839844 102.441406 Z M 0.839844 0.679688 " clip-rule="nonzero"/></clipPath><clipPath id="994a090737"><path d="M 0.964844 12.996094 L 10.121094 0.75 L 129.75 90.15625 L 120.597656 102.40625 Z M 0.964844 12.996094 " clip-rule="nonzero"/></clipPath><clipPath id="eee4aeca5a"><rect x="0" width="130" y="0" height="103"/></clipPath></defs><rect x="-30" width="360" fill="#ffffff" y="-29.999999" height="359.999986" fill-opacity="1"/><rect x="-30" width="360" fill="#ffffff" y="-29.999999" height="359.999986" fill-opacity="1"/><g transform="matrix(1, 0, 0, 1, 0, 0)"><g clip-path="url(#7eea6a790a)"><g clip-path="url(#3cf3e166b0)"><rect x="-66" width="432" fill="#5deecd" height="431.999983" y="-65.999997" fill-opacity="1"/></g></g></g><g clip-path="url(#8454ebd91d)"><g clip-path="url(#940b7378ed)"><g transform="matrix(1, 0, 0, 1, 18, 243)"><g clip-path="url(#c386421eed)"><g clip-path="url(#0f40107fa9)"><g clip-path="url(#069d11cde0)"><path fill="#ffffff" d="M 0.75 0.75 L 38.25 0.75 L 38.25 38.25 L 0.75 38.25 Z M 0.75 0.75 " fill-opacity="1" fill-rule="nonzero"/></g></g></g></g></g></g><g clip-path="url(#4a64e24fb5)"><g clip-path="url(#eabbe63da2)"><g transform="matrix(1, 0, 0, 1, 243, 243)"><g clip-path="url(#2cf31ad3ed)"><g clip-path="url(#4504b0f3b1)"><g clip-path="url(#63e4252b29)"><path fill="#ffffff" d="M 0.75 0.75 L 38.25 0.75 L 38.25 38.25 L 0.75 38.25 Z M 0.75 0.75 " fill-opacity="1" fill-rule="nonzero"/></g></g></g></g></g></g><g clip-path="url(#bdac0c30d1)"><g clip-path="url(#4d195a3ac8)"><g transform="matrix(1, 0, 0, 1, 131, 159)"><g clip-path="url(#7ca726ec49)"><g clip-path="url(#9eefdc4db3)"><g clip-path="url(#4109135c6c)"><path fill="#ffffff" d="M 0.25 0.75 L 37.75 0.75 L 37.75 38.25 L 0.25 38.25 Z M 0.25 0.75 " fill-opacity="1" fill-rule="nonzero"/></g></g></g></g></g></g><g clip-path="url(#84a9bbd66f)"><g clip-path="url(#7d3f30ef11)"><g transform="matrix(1, 0, 0, 1, 131, 30)"><g clip-path="url(#e996b26ec5)"><g clip-path="url(#cad2c03e82)"><g clip-path="url(#520986bc6f)"><path fill="#ffffff" d="M 0.25 0 L 37.75 0 L 37.75 37.5 L 0.25 37.5 Z M 0.25 0 " fill-opacity="1" fill-rule="nonzero"/></g></g></g></g></g></g><g clip-path="url(#89d33c1890)"><g clip-path="url(#d7589900be)"><g transform="matrix(1, 0, 0, 1, 183, 123)"><g clip-path="url(#809fa24417)"><g clip-path="url(#bfea215a19)"><g clip-path="url(#331d510c68)"><path fill="#ffffff" d="M 0.75 0.75 L 38.25 0.75 L 38.25 38.25 L 0.75 38.25 Z M 0.75 0.75 " fill-opacity="1" fill-rule="nonzero"/></g></g></g></g></g></g><g clip-path="url(#ca4e053d76)"><g clip-path="url(#e167cc9bc4)"><g transform="matrix(1, 0, 0, 1, 25, 55)"><g clip-path="url(#2080e50bc4)"><g clip-path="url(#0b301b63d6)"><g clip-path="url(#9049ae3d4c)"><path fill="#ffffff" d="M 112.695312 0.886719 L 126.179688 8.097656 L 14.199219 217.46875 L 0.714844 210.257812 Z M 112.695312 0.886719 " fill-opacity="1" fill-rule="nonzero"/></g></g></g></g></g></g><g clip-path="url(#5f30355048)"><g clip-path="url(#69d9cb51d6)"><g transform="matrix(1, 0, 0, 1, 33, 141)"><g clip-path="url(#4679bf4786)"><g clip-path="url(#b1e4a94fcc)"><g clip-path="url(#84fd31922a)"><path fill="#ffffff" d="M 157.796875 0.421875 L 166.742188 12.824219 L 9.730469 126.074219 L 0.785156 113.671875 Z M 157.796875 0.421875 " fill-opacity="1" fill-rule="nonzero"/></g></g></g></g></g></g><g clip-path="url(#2744586e92)"><g clip-path="url(#1e7caa14de)"><g transform="matrix(1, 0, 0, 1, 150, 58)"><g clip-path="url(#c3691d5820)"><g clip-path="url(#0a3c2bf490)"><g clip-path="url(#393a9b19a4)"><path fill="#ffffff" d="M 0.605469 7.515625 L 14.132812 0.386719 L 116.300781 194.269531 L 102.773438 201.398438 Z M 0.605469 7.515625 " fill-opacity="1" fill-rule="nonzero"/></g></g></g></g></g></g><g clip-path="url(#8398af5c73)"><g clip-path="url(#397bce7630)"><g transform="matrix(1, 0, 0, 1, 141, 169)"><g clip-path="url(#eee4aeca5a)"><g clip-path="url(#0f604eda09)"><g clip-path="url(#994a090737)"><path fill="#ffffff" d="M 0.964844 12.996094 L 10.121094 0.75 L 129.734375 90.144531 L 120.582031 102.394531 Z M 0.964844 12.996094 " fill-opacity="1" fill-rule="nonzero"/></g></g></g></g></g></g></svg>