<svg xmlns="http://www.w3.org/2000/svg" xmlns:xlink="http://www.w3.org/1999/xlink" width="400" zoomAndPan="magnify" viewBox="0 0 300 299.999988" height="400" preserveAspectRatio="xMidYMid meet" version="1.0"><defs><clipPath id="7cdc57ca0c"><path d="M 18.75 243.75 L 56.25 243.75 L 56.25 281.25 L 18.75 281.25 Z M 18.75 243.75 " clip-rule="nonzero"/></clipPath><clipPath id="6edab67054"><path d="M 37.5 243.75 C 27.144531 243.75 18.75 252.144531 18.75 262.5 C 18.75 272.855469 27.144531 281.25 37.5 281.25 C 47.855469 281.25 56.25 272.855469 56.25 262.5 C 56.25 252.144531 47.855469 243.75 37.5 243.75 Z M 37.5 243.75 " clip-rule="nonzero"/></clipPath><clipPath id="2544c221d5"><path d="M 0.75 0.75 L 38.25 0.75 L 38.25 38.25 L 0.75 38.25 Z M 0.75 0.75 " clip-rule="nonzero"/></clipPath><clipPath id="1923b350b6"><path d="M 19.5 0.75 C 9.144531 0.75 0.75 9.144531 0.75 19.5 C 0.75 29.855469 9.144531 38.25 19.5 38.25 C 29.855469 38.25 38.25 29.855469 38.25 19.5 C 38.25 9.144531 29.855469 0.75 19.5 0.75 Z M 19.5 0.75 " clip-rule="nonzero"/></clipPath><clipPath id="aabe609ac2"><rect x="0" width="39" y="0" height="39"/></clipPath><clipPath id="3d5402ef8a"><path d="M 243.75 243.75 L 281.25 243.75 L 281.25 281.25 L 243.75 281.25 Z M 243.75 243.75 " clip-rule="nonzero"/></clipPath><clipPath id="29105db73c"><path d="M 262.5 243.75 C 252.144531 243.75 243.75 252.144531 243.75 262.5 C 243.75 272.855469 252.144531 281.25 262.5 281.25 C 272.855469 281.25 281.25 272.855469 281.25 262.5 C 281.25 252.144531 272.855469 243.75 262.5 243.75 Z M 262.5 243.75 " clip-rule="nonzero"/></clipPath><clipPath id="ea3d4bd7df"><path d="M 0.75 0.75 L 38.25 0.75 L 38.25 38.25 L 0.75 38.25 Z M 0.75 0.75 " clip-rule="nonzero"/></clipPath><clipPath id="8f4dad9014"><path d="M 19.5 0.75 C 9.144531 0.75 0.75 9.144531 0.75 19.5 C 0.75 29.855469 9.144531 38.25 19.5 38.25 C 29.855469 38.25 38.25 29.855469 38.25 19.5 C 38.25 9.144531 29.855469 0.75 19.5 0.75 Z M 19.5 0.75 " clip-rule="nonzero"/></clipPath><clipPath id="eedea64edd"><rect x="0" width="39" y="0" height="39"/></clipPath><clipPath id="7d23cb43c5"><path d="M 131.25 159.75 L 168.75 159.75 L 168.75 197.25 L 131.25 197.25 Z M 131.25 159.75 " clip-rule="nonzero"/></clipPath><clipPath id="8db07d1fa5"><path d="M 150 159.75 C 139.644531 159.75 131.25 168.144531 131.25 178.5 C 131.25 188.855469 139.644531 197.25 150 197.25 C 160.355469 197.25 168.75 188.855469 168.75 178.5 C 168.75 168.144531 160.355469 159.75 150 159.75 Z M 150 159.75 " clip-rule="nonzero"/></clipPath><clipPath id="7bd9b2ba82"><path d="M 0.25 0.75 L 37.75 0.75 L 37.75 38.25 L 0.25 38.25 Z M 0.25 0.75 " clip-rule="nonzero"/></clipPath><clipPath id="f4cc0796d9"><path d="M 19 0.75 C 8.644531 0.75 0.25 9.144531 0.25 19.5 C 0.25 29.855469 8.644531 38.25 19 38.25 C 29.355469 38.25 37.75 29.855469 37.75 19.5 C 37.75 9.144531 29.355469 0.75 19 0.75 Z M 19 0.75 " clip-rule="nonzero"/></clipPath><clipPath id="2edf61caf3"><rect x="0" width="38" y="0" height="39"/></clipPath><clipPath id="04290ee0e9"><path d="M 131.25 30 L 168.75 30 L 168.75 67.5 L 131.25 67.5 Z M 131.25 30 " clip-rule="nonzero"/></clipPath><clipPath id="4c2b4eceda"><path d="M 150 30 C 139.644531 30 131.25 38.394531 131.25 48.75 C 131.25 59.105469 139.644531 67.5 150 67.5 C 160.355469 67.5 168.75 59.105469 168.75 48.75 C 168.75 38.394531 160.355469 30 150 30 Z M 150 30 " clip-rule="nonzero"/></clipPath><clipPath id="d45f0c0e93"><path d="M 0.25 0 L 37.75 0 L 37.75 37.5 L 0.25 37.5 Z M 0.25 0 " clip-rule="nonzero"/></clipPath><clipPath id="c4c0b91796"><path d="M 19 0 C 8.644531 0 0.25 8.394531 0.25 18.75 C 0.25 29.105469 8.644531 37.5 19 37.5 C 29.355469 37.5 37.75 29.105469 37.75 18.75 C 37.75 8.394531 29.355469 0 19 0 Z M 19 0 " clip-rule="nonzero"/></clipPath><clipPath id="479804d132"><rect x="0" width="38" y="0" height="38"/></clipPath><clipPath id="eebda8a6cb"><path d="M 183.75 123.75 L 221.25 123.75 L 221.25 161.25 L 183.75 161.25 Z M 183.75 123.75 " clip-rule="nonzero"/></clipPath><clipPath id="0b403b4cc9"><path d="M 202.5 123.75 C 192.144531 123.75 183.75 132.144531 183.75 142.5 C 183.75 152.855469 192.144531 161.25 202.5 161.25 C 212.855469 161.25 221.25 152.855469 221.25 142.5 C 221.25 132.144531 212.855469 123.75 202.5 123.75 Z M 202.5 123.75 " clip-rule="nonzero"/></clipPath><clipPath id="59d9e2815a"><path d="M 0.75 0.75 L 38.25 0.75 L 38.25 38.25 L 0.75 38.25 Z M 0.75 0.75 " clip-rule="nonzero"/></clipPath><clipPath id="0e5f675a03"><path d="M 19.5 0.75 C 9.144531 0.75 0.75 9.144531 0.75 19.5 C 0.75 29.855469 9.144531 38.25 19.5 38.25 C 29.855469 38.25 38.25 29.855469 38.25 19.5 C 38.25 9.144531 29.855469 0.75 19.5 0.75 Z M 19.5 0.75 " clip-rule="nonzero"/></clipPath><clipPath id="d0e38c8e71"><rect x="0" width="39" y="0" height="39"/></clipPath><clipPath id="2c8d073dd7"><path d="M 25 55 L 152 55 L 152 273 L 25 273 Z M 25 55 " clip-rule="nonzero"/></clipPath><clipPath id="087224ab07"><path d="M 137.695312 55.886719 L 151.179688 63.097656 L 39.199219 272.464844 L 25.714844 265.253906 Z M 137.695312 55.886719 " clip-rule="nonzero"/></clipPath><clipPath id="f30d9680a2"><path d="M 0.679688 0.679688 L 126.199219 0.679688 L 126.199219 217.640625 L 0.679688 217.640625 Z M 0.679688 0.679688 " clip-rule="nonzero"/></clipPath><clipPath id="ecd46c0ce1"><path d="M 112.695312 0.886719 L 126.179688 8.097656 L 14.199219 217.464844 L 0.714844 210.253906 Z M 112.695312 0.886719 " clip-rule="nonzero"/></clipPath><clipPath id="a49d97bdaf"><rect x="0" width="127" y="0" height="218"/></clipPath><clipPath id="e93bb4d307"><path d="M 33 141 L 200 141 L 200 268 L 33 268 Z M 33 141 " clip-rule="nonzero"/></clipPath><clipPath id="032d64248e"><path d="M 190.796875 141.421875 L 199.742188 153.824219 L 42.707031 267.089844 L 33.761719 254.6875 Z M 190.796875 141.421875 " clip-rule="nonzero"/></clipPath><clipPath id="bdbc1f82c0"><path d="M 0.601562 0.359375 L 166.921875 0.359375 L 166.921875 126.121094 L 0.601562 126.121094 Z M 0.601562 0.359375 " clip-rule="nonzero"/></clipPath><clipPath id="f5252a48fb"><path d="M 157.796875 0.421875 L 166.742188 12.824219 L 9.707031 126.089844 L 0.761719 113.6875 Z M 157.796875 0.421875 " clip-rule="nonzero"/></clipPath><clipPath id="1cc44454fc"><rect x="0" width="167" y="0" height="127"/></clipPath><clipPath id="82df166afb"><path d="M 150 58 L 267 58 L 267 260 L 150 260 Z M 150 58 " clip-rule="nonzero"/></clipPath><clipPath id="d73629d834"><path d="M 150.605469 65.515625 L 164.132812 58.386719 L 266.292969 252.25 L 252.765625 259.378906 Z M 150.605469 65.515625 " clip-rule="nonzero"/></clipPath><clipPath id="503dac04d2"><path d="M 0.480469 0.320312 L 116.398438 0.320312 L 116.398438 201.441406 L 0.480469 201.441406 Z M 0.480469 0.320312 " clip-rule="nonzero"/></clipPath><clipPath id="3dbd97c8b3"><path d="M 0.605469 7.515625 L 14.132812 0.386719 L 116.292969 194.25 L 102.765625 201.378906 Z M 0.605469 7.515625 " clip-rule="nonzero"/></clipPath><clipPath id="b66682b351"><rect x="0" width="117" y="0" height="202"/></clipPath><clipPath id="60d13e0300"><path d="M 141 169 L 271 169 L 271 272 L 141 272 Z M 141 169 " clip-rule="nonzero"/></clipPath><clipPath id="1aca87fae7"><path d="M 141.964844 181.996094 L 151.121094 169.75 L 270.75 259.15625 L 261.597656 271.40625 Z M 141.964844 181.996094 " clip-rule="nonzero"/></clipPath><clipPath id="5517f8021b"><path d="M 0.839844 0.679688 L 129.960938 0.679688 L 129.960938 102.441406 L 0.839844 102.441406 Z M 0.839844 0.679688 " clip-rule="nonzero"/></clipPath><clipPath id="55049d799c"><path d="M 0.964844 12.996094 L 10.121094 0.75 L 129.75 90.15625 L 120.597656 102.40625 Z M 0.964844 12.996094 " clip-rule="nonzero"/></clipPath><clipPath id="645c56ddce"><rect x="0" width="130" y="0" height="103"/></clipPath></defs><g clip-path="url(#7cdc57ca0c)"><g clip-path="url(#6edab67054)"><g transform="matrix(1, 0, 0, 1, 18, 243)"><g clip-path="url(#aabe609ac2)"><g clip-path="url(#2544c221d5)"><g clip-path="url(#1923b350b6)"><path fill="#167bbb" d="M 0.75 0.75 L 38.25 0.75 L 38.25 38.25 L 0.75 38.25 Z M 0.75 0.75 " fill-opacity="1" fill-rule="nonzero"/></g></g></g></g></g></g><g clip-path="url(#3d5402ef8a)"><g clip-path="url(#29105db73c)"><g transform="matrix(1, 0, 0, 1, 243, 243)"><g clip-path="url(#eedea64edd)"><g clip-path="url(#ea3d4bd7df)"><g clip-path="url(#8f4dad9014)"><path fill="#167bbb" d="M 0.75 0.75 L 38.25 0.75 L 38.25 38.25 L 0.75 38.25 Z M 0.75 0.75 " fill-opacity="1" fill-rule="nonzero"/></g></g></g></g></g></g><g clip-path="url(#7d23cb43c5)"><g clip-path="url(#8db07d1fa5)"><g transform="matrix(1, 0, 0, 1, 131, 159)"><g clip-path="url(#2edf61caf3)"><g clip-path="url(#7bd9b2ba82)"><g clip-path="url(#f4cc0796d9)"><path fill="#167bbb" d="M 0.25 0.75 L 37.75 0.75 L 37.75 38.25 L 0.25 38.25 Z M 0.25 0.75 " fill-opacity="1" fill-rule="nonzero"/></g></g></g></g></g></g><g clip-path="url(#04290ee0e9)"><g clip-path="url(#4c2b4eceda)"><g transform="matrix(1, 0, 0, 1, 131, 30)"><g clip-path="url(#479804d132)"><g clip-path="url(#d45f0c0e93)"><g clip-path="url(#c4c0b91796)"><path fill="#167bbb" d="M 0.25 0 L 37.75 0 L 37.75 37.5 L 0.25 37.5 Z M 0.25 0 " fill-opacity="1" fill-rule="nonzero"/></g></g></g></g></g></g><g clip-path="url(#eebda8a6cb)"><g clip-path="url(#0b403b4cc9)"><g transform="matrix(1, 0, 0, 1, 183, 123)"><g clip-path="url(#d0e38c8e71)"><g clip-path="url(#59d9e2815a)"><g clip-path="url(#0e5f675a03)"><path fill="#167bbb" d="M 0.75 0.75 L 38.25 0.75 L 38.25 38.25 L 0.75 38.25 Z M 0.75 0.75 " fill-opacity="1" fill-rule="nonzero"/></g></g></g></g></g></g><g clip-path="url(#2c8d073dd7)"><g clip-path="url(#087224ab07)"><g transform="matrix(1, 0, 0, 1, 25, 55)"><g clip-path="url(#a49d97bdaf)"><g clip-path="url(#f30d9680a2)"><g clip-path="url(#ecd46c0ce1)"><path fill="#167bbb" d="M 112.695312 0.886719 L 126.179688 8.097656 L 14.199219 217.46875 L 0.714844 210.257812 Z M 112.695312 0.886719 " fill-opacity="1" fill-rule="nonzero"/></g></g></g></g></g></g><g clip-path="url(#e93bb4d307)"><g clip-path="url(#032d64248e)"><g transform="matrix(1, 0, 0, 1, 33, 141)"><g clip-path="url(#1cc44454fc)"><g clip-path="url(#bdbc1f82c0)"><g clip-path="url(#f5252a48fb)"><path fill="#167bbb" d="M 157.796875 0.421875 L 166.742188 12.824219 L 9.730469 126.074219 L 0.785156 113.671875 Z M 157.796875 0.421875 " fill-opacity="1" fill-rule="nonzero"/></g></g></g></g></g></g><g clip-path="url(#82df166afb)"><g clip-path="url(#d73629d834)"><g transform="matrix(1, 0, 0, 1, 150, 58)"><g clip-path="url(#b66682b351)"><g clip-path="url(#503dac04d2)"><g clip-path="url(#3dbd97c8b3)"><path fill="#167bbb" d="M 0.605469 7.515625 L 14.132812 0.386719 L 116.300781 194.269531 L 102.773438 201.398438 Z M 0.605469 7.515625 " fill-opacity="1" fill-rule="nonzero"/></g></g></g></g></g></g><g clip-path="url(#60d13e0300)"><g clip-path="url(#1aca87fae7)"><g transform="matrix(1, 0, 0, 1, 141, 169)"><g clip-path="url(#645c56ddce)"><g clip-path="url(#5517f8021b)"><g clip-path="url(#55049d799c)"><path fill="#167bbb" d="M 0.964844 12.996094 L 10.121094 0.75 L 129.734375 90.144531 L 120.582031 102.394531 Z M 0.964844 12.996094 " fill-opacity="1" fill-rule="nonzero"/></g></g></g></g></g></g></svg>