<svg xmlns="http://www.w3.org/2000/svg" xmlns:xlink="http://www.w3.org/1999/xlink" width="400" zoomAndPan="magnify" viewBox="0 0 300 299.999988" height="400" preserveAspectRatio="xMidYMid meet" version="1.0"><defs><clipPath id="cd7f21fa69"><path d="M 18.75 243.75 L 56.25 243.75 L 56.25 281.25 L 18.75 281.25 Z M 18.75 243.75 " clip-rule="nonzero"/></clipPath><clipPath id="4df51d239b"><path d="M 37.5 243.75 C 27.144531 243.75 18.75 252.144531 18.75 262.5 C 18.75 272.855469 27.144531 281.25 37.5 281.25 C 47.855469 281.25 56.25 272.855469 56.25 262.5 C 56.25 252.144531 47.855469 243.75 37.5 243.75 Z M 37.5 243.75 " clip-rule="nonzero"/></clipPath><clipPath id="f156b8667c"><path d="M 0.75 0.75 L 38.25 0.75 L 38.25 38.25 L 0.75 38.25 Z M 0.75 0.75 " clip-rule="nonzero"/></clipPath><clipPath id="dfc7844854"><path d="M 19.5 0.75 C 9.144531 0.75 0.75 9.144531 0.75 19.5 C 0.75 29.855469 9.144531 38.25 19.5 38.25 C 29.855469 38.25 38.25 29.855469 38.25 19.5 C 38.25 9.144531 29.855469 0.75 19.5 0.75 Z M 19.5 0.75 " clip-rule="nonzero"/></clipPath><clipPath id="f95a4bb411"><rect x="0" width="39" y="0" height="39"/></clipPath><clipPath id="37f932eb18"><path d="M 243.75 243.75 L 281.25 243.75 L 281.25 281.25 L 243.75 281.25 Z M 243.75 243.75 " clip-rule="nonzero"/></clipPath><clipPath id="114bdae3d0"><path d="M 262.5 243.75 C 252.144531 243.75 243.75 252.144531 243.75 262.5 C 243.75 272.855469 252.144531 281.25 262.5 281.25 C 272.855469 281.25 281.25 272.855469 281.25 262.5 C 281.25 252.144531 272.855469 243.75 262.5 243.75 Z M 262.5 243.75 " clip-rule="nonzero"/></clipPath><clipPath id="82ccc56c93"><path d="M 0.75 0.75 L 38.25 0.75 L 38.25 38.25 L 0.75 38.25 Z M 0.75 0.75 " clip-rule="nonzero"/></clipPath><clipPath id="9ebdfaf8f4"><path d="M 19.5 0.75 C 9.144531 0.75 0.75 9.144531 0.75 19.5 C 0.75 29.855469 9.144531 38.25 19.5 38.25 C 29.855469 38.25 38.25 29.855469 38.25 19.5 C 38.25 9.144531 29.855469 0.75 19.5 0.75 Z M 19.5 0.75 " clip-rule="nonzero"/></clipPath><clipPath id="01376a789f"><rect x="0" width="39" y="0" height="39"/></clipPath><clipPath id="0b6b5f43a0"><path d="M 131.25 159.75 L 168.75 159.75 L 168.75 197.25 L 131.25 197.25 Z M 131.25 159.75 " clip-rule="nonzero"/></clipPath><clipPath id="eaba1f9263"><path d="M 150 159.75 C 139.644531 159.75 131.25 168.144531 131.25 178.5 C 131.25 188.855469 139.644531 197.25 150 197.25 C 160.355469 197.25 168.75 188.855469 168.75 178.5 C 168.75 168.144531 160.355469 159.75 150 159.75 Z M 150 159.75 " clip-rule="nonzero"/></clipPath><clipPath id="7a5918a1e2"><path d="M 0.25 0.75 L 37.75 0.75 L 37.75 38.25 L 0.25 38.25 Z M 0.25 0.75 " clip-rule="nonzero"/></clipPath><clipPath id="9de6682ff7"><path d="M 19 0.75 C 8.644531 0.75 0.25 9.144531 0.25 19.5 C 0.25 29.855469 8.644531 38.25 19 38.25 C 29.355469 38.25 37.75 29.855469 37.75 19.5 C 37.75 9.144531 29.355469 0.75 19 0.75 Z M 19 0.75 " clip-rule="nonzero"/></clipPath><clipPath id="973c9baba2"><rect x="0" width="38" y="0" height="39"/></clipPath><clipPath id="12c9640174"><path d="M 131.25 30 L 168.75 30 L 168.75 67.5 L 131.25 67.5 Z M 131.25 30 " clip-rule="nonzero"/></clipPath><clipPath id="172e7b30bd"><path d="M 150 30 C 139.644531 30 131.25 38.394531 131.25 48.75 C 131.25 59.105469 139.644531 67.5 150 67.5 C 160.355469 67.5 168.75 59.105469 168.75 48.75 C 168.75 38.394531 160.355469 30 150 30 Z M 150 30 " clip-rule="nonzero"/></clipPath><clipPath id="675227ecb8"><path d="M 0.25 0 L 37.75 0 L 37.75 37.5 L 0.25 37.5 Z M 0.25 0 " clip-rule="nonzero"/></clipPath><clipPath id="061b3481cf"><path d="M 19 0 C 8.644531 0 0.25 8.394531 0.25 18.75 C 0.25 29.105469 8.644531 37.5 19 37.5 C 29.355469 37.5 37.75 29.105469 37.75 18.75 C 37.75 8.394531 29.355469 0 19 0 Z M 19 0 " clip-rule="nonzero"/></clipPath><clipPath id="700ba08260"><rect x="0" width="38" y="0" height="38"/></clipPath><clipPath id="1029834776"><path d="M 183.75 123.75 L 221.25 123.75 L 221.25 161.25 L 183.75 161.25 Z M 183.75 123.75 " clip-rule="nonzero"/></clipPath><clipPath id="87ecaed266"><path d="M 202.5 123.75 C 192.144531 123.75 183.75 132.144531 183.75 142.5 C 183.75 152.855469 192.144531 161.25 202.5 161.25 C 212.855469 161.25 221.25 152.855469 221.25 142.5 C 221.25 132.144531 212.855469 123.75 202.5 123.75 Z M 202.5 123.75 " clip-rule="nonzero"/></clipPath><clipPath id="935b95251d"><path d="M 0.75 0.75 L 38.25 0.75 L 38.25 38.25 L 0.75 38.25 Z M 0.75 0.75 " clip-rule="nonzero"/></clipPath><clipPath id="ad5f03b958"><path d="M 19.5 0.75 C 9.144531 0.75 0.75 9.144531 0.75 19.5 C 0.75 29.855469 9.144531 38.25 19.5 38.25 C 29.855469 38.25 38.25 29.855469 38.25 19.5 C 38.25 9.144531 29.855469 0.75 19.5 0.75 Z M 19.5 0.75 " clip-rule="nonzero"/></clipPath><clipPath id="c7abd63b91"><rect x="0" width="39" y="0" height="39"/></clipPath><clipPath id="99b88a3604"><path d="M 25 55 L 152 55 L 152 273 L 25 273 Z M 25 55 " clip-rule="nonzero"/></clipPath><clipPath id="0804a390b5"><path d="M 137.695312 55.886719 L 151.179688 63.097656 L 39.199219 272.464844 L 25.714844 265.253906 Z M 137.695312 55.886719 " clip-rule="nonzero"/></clipPath><clipPath id="4fd630b9f5"><path d="M 0.679688 0.679688 L 126.199219 0.679688 L 126.199219 217.640625 L 0.679688 217.640625 Z M 0.679688 0.679688 " clip-rule="nonzero"/></clipPath><clipPath id="57c8ebfd56"><path d="M 112.695312 0.886719 L 126.179688 8.097656 L 14.199219 217.464844 L 0.714844 210.253906 Z M 112.695312 0.886719 " clip-rule="nonzero"/></clipPath><clipPath id="e497431903"><rect x="0" width="127" y="0" height="218"/></clipPath><clipPath id="fb6aaea314"><path d="M 33 141 L 200 141 L 200 268 L 33 268 Z M 33 141 " clip-rule="nonzero"/></clipPath><clipPath id="aa889cfa10"><path d="M 190.796875 141.421875 L 199.742188 153.824219 L 42.707031 267.089844 L 33.761719 254.6875 Z M 190.796875 141.421875 " clip-rule="nonzero"/></clipPath><clipPath id="ce5a02fbcd"><path d="M 0.601562 0.359375 L 166.921875 0.359375 L 166.921875 126.121094 L 0.601562 126.121094 Z M 0.601562 0.359375 " clip-rule="nonzero"/></clipPath><clipPath id="2cfac0efa0"><path d="M 157.796875 0.421875 L 166.742188 12.824219 L 9.707031 126.089844 L 0.761719 113.6875 Z M 157.796875 0.421875 " clip-rule="nonzero"/></clipPath><clipPath id="1d8ddc52b5"><rect x="0" width="167" y="0" height="127"/></clipPath><clipPath id="2bbdc50341"><path d="M 150 58 L 267 58 L 267 260 L 150 260 Z M 150 58 " clip-rule="nonzero"/></clipPath><clipPath id="cef27fa0e1"><path d="M 150.605469 65.515625 L 164.132812 58.386719 L 266.292969 252.25 L 252.765625 259.378906 Z M 150.605469 65.515625 " clip-rule="nonzero"/></clipPath><clipPath id="a0d8668173"><path d="M 0.480469 0.320312 L 116.398438 0.320312 L 116.398438 201.441406 L 0.480469 201.441406 Z M 0.480469 0.320312 " clip-rule="nonzero"/></clipPath><clipPath id="b58a6d349e"><path d="M 0.605469 7.515625 L 14.132812 0.386719 L 116.292969 194.25 L 102.765625 201.378906 Z M 0.605469 7.515625 " clip-rule="nonzero"/></clipPath><clipPath id="5a2ae67418"><rect x="0" width="117" y="0" height="202"/></clipPath><clipPath id="b0734c2929"><path d="M 141 169 L 271 169 L 271 272 L 141 272 Z M 141 169 " clip-rule="nonzero"/></clipPath><clipPath id="9a11072451"><path d="M 141.964844 181.996094 L 151.121094 169.75 L 270.75 259.15625 L 261.597656 271.40625 Z M 141.964844 181.996094 " clip-rule="nonzero"/></clipPath><clipPath id="e149890e31"><path d="M 0.839844 0.679688 L 129.960938 0.679688 L 129.960938 102.441406 L 0.839844 102.441406 Z M 0.839844 0.679688 " clip-rule="nonzero"/></clipPath><clipPath id="06e7b605b8"><path d="M 0.964844 12.996094 L 10.121094 0.75 L 129.75 90.15625 L 120.597656 102.40625 Z M 0.964844 12.996094 " clip-rule="nonzero"/></clipPath><clipPath id="b82e88a0b2"><rect x="0" width="130" y="0" height="103"/></clipPath></defs><g clip-path="url(#cd7f21fa69)"><g clip-path="url(#4df51d239b)"><g transform="matrix(1, 0, 0, 1, 18, 243)"><g clip-path="url(#f95a4bb411)"><g clip-path="url(#f156b8667c)"><g clip-path="url(#dfc7844854)"><path fill="#ccd6f6" d="M 0.75 0.75 L 38.25 0.75 L 38.25 38.25 L 0.75 38.25 Z M 0.75 0.75 " fill-opacity="1" fill-rule="nonzero"/></g></g></g></g></g></g><g clip-path="url(#37f932eb18)"><g clip-path="url(#114bdae3d0)"><g transform="matrix(1, 0, 0, 1, 243, 243)"><g clip-path="url(#01376a789f)"><g clip-path="url(#82ccc56c93)"><g clip-path="url(#9ebdfaf8f4)"><path fill="#ccd6f6" d="M 0.75 0.75 L 38.25 0.75 L 38.25 38.25 L 0.75 38.25 Z M 0.75 0.75 " fill-opacity="1" fill-rule="nonzero"/></g></g></g></g></g></g><g clip-path="url(#0b6b5f43a0)"><g clip-path="url(#eaba1f9263)"><g transform="matrix(1, 0, 0, 1, 131, 159)"><g clip-path="url(#973c9baba2)"><g clip-path="url(#7a5918a1e2)"><g clip-path="url(#9de6682ff7)"><path fill="#ccd6f6" d="M 0.25 0.75 L 37.75 0.75 L 37.75 38.25 L 0.25 38.25 Z M 0.25 0.75 " fill-opacity="1" fill-rule="nonzero"/></g></g></g></g></g></g><g clip-path="url(#12c9640174)"><g clip-path="url(#172e7b30bd)"><g transform="matrix(1, 0, 0, 1, 131, 30)"><g clip-path="url(#700ba08260)"><g clip-path="url(#675227ecb8)"><g clip-path="url(#061b3481cf)"><path fill="#ccd6f6" d="M 0.25 0 L 37.75 0 L 37.75 37.5 L 0.25 37.5 Z M 0.25 0 " fill-opacity="1" fill-rule="nonzero"/></g></g></g></g></g></g><g clip-path="url(#1029834776)"><g clip-path="url(#87ecaed266)"><g transform="matrix(1, 0, 0, 1, 183, 123)"><g clip-path="url(#c7abd63b91)"><g clip-path="url(#935b95251d)"><g clip-path="url(#ad5f03b958)"><path fill="#ccd6f6" d="M 0.75 0.75 L 38.25 0.75 L 38.25 38.25 L 0.75 38.25 Z M 0.75 0.75 " fill-opacity="1" fill-rule="nonzero"/></g></g></g></g></g></g><g clip-path="url(#99b88a3604)"><g clip-path="url(#0804a390b5)"><g transform="matrix(1, 0, 0, 1, 25, 55)"><g clip-path="url(#e497431903)"><g clip-path="url(#4fd630b9f5)"><g clip-path="url(#57c8ebfd56)"><path fill="#ccd6f6" d="M 112.695312 0.886719 L 126.179688 8.097656 L 14.199219 217.46875 L 0.714844 210.257812 Z M 112.695312 0.886719 " fill-opacity="1" fill-rule="nonzero"/></g></g></g></g></g></g><g clip-path="url(#fb6aaea314)"><g clip-path="url(#aa889cfa10)"><g transform="matrix(1, 0, 0, 1, 33, 141)"><g clip-path="url(#1d8ddc52b5)"><g clip-path="url(#ce5a02fbcd)"><g clip-path="url(#2cfac0efa0)"><path fill="#ccd6f6" d="M 157.796875 0.421875 L 166.742188 12.824219 L 9.730469 126.074219 L 0.785156 113.671875 Z M 157.796875 0.421875 " fill-opacity="1" fill-rule="nonzero"/></g></g></g></g></g></g><g clip-path="url(#2bbdc50341)"><g clip-path="url(#cef27fa0e1)"><g transform="matrix(1, 0, 0, 1, 150, 58)"><g clip-path="url(#5a2ae67418)"><g clip-path="url(#a0d8668173)"><g clip-path="url(#b58a6d349e)"><path fill="#ccd6f6" d="M 0.605469 7.515625 L 14.132812 0.386719 L 116.300781 194.269531 L 102.773438 201.398438 Z M 0.605469 7.515625 " fill-opacity="1" fill-rule="nonzero"/></g></g></g></g></g></g><g clip-path="url(#b0734c2929)"><g clip-path="url(#9a11072451)"><g transform="matrix(1, 0, 0, 1, 141, 169)"><g clip-path="url(#b82e88a0b2)"><g clip-path="url(#e149890e31)"><g clip-path="url(#06e7b605b8)"><path fill="#ccd6f6" d="M 0.964844 12.996094 L 10.121094 0.75 L 129.734375 90.144531 L 120.582031 102.394531 Z M 0.964844 12.996094 " fill-opacity="1" fill-rule="nonzero"/></g></g></g></g></g></g></svg>